<?xml version="1.0" standalone="no"?>
<!DOCTYPE svg PUBLIC "-//W3C//DTD SVG 20010904//EN"
 "http://www.w3.org/TR/2001/REC-SVG-20010904/DTD/svg10.dtd">
<svg version="1.0" xmlns="http://www.w3.org/2000/svg"
 width="101.000000pt" height="101.000000pt" viewBox="0 0 101.000000 101.000000"
 preserveAspectRatio="xMidYMid meet">
<metadata>
Created by potrace 1.14, written by Peter Selinger 2001-2017
</metadata>
<g transform="translate(0.000000,101.000000) scale(0.100000,-0.100000)"
fill="#000000" stroke="none">
<path d="M633 980 c-25 -10 -78 -79 -99 -129 -23 -55 -45 -148 -46 -198 l-1
-46 -18 24 c-15 20 -20 22 -31 10 -10 -11 -10 -14 0 -18 14 -5 17 -33 3 -33
-6 0 -13 4 -16 10 -9 14 -162 58 -220 63 -96 7 -187 -27 -181 -69 2 -13 83
-119 140 -181 38 -43 70 -42 134 1 l50 33 -29 -45 c-53 -83 -29 -162 61 -209
50 -26 61 -55 49 -125 -5 -29 -3 -38 7 -38 8 0 15 8 15 18 1 9 3 24 4 32 1 8
3 30 4 47 1 27 7 35 34 46 17 8 39 22 47 32 19 23 21 97 5 174 -7 34 -11 61
-9 61 2 0 10 -15 19 -34 21 -44 47 -57 41 -20 -3 15 -13 35 -22 45 -30 33 -9
30 32 -4 108 -92 165 -109 214 -62 l25 24 58 -26 c43 -19 61 -23 69 -15 8 8 6
13 -8 17 -10 3 -38 15 -61 27 l-43 21 0 61 c0 104 -46 151 -147 151 l-62 0 52
27 c95 48 99 67 41 207 -58 137 -61 141 -111 121z"/>
</g>
</svg>
